<svg width="48" height="49" viewBox="0 0 48 49" fill="none" xmlns="http://www.w3.org/2000/svg">
<path d="M24.9035 18.9867L24.9033 24.0096V24.0096V24.068C24.9033 24.1845 24.9183 24.2976 24.9465 24.4053L24.8987 25.223L24.8961 25.267C24.8849 25.4587 24.8103 25.6263 24.6841 25.7526L26.1267 24.8077C26.0445 24.7942 25.9624 24.765 25.8805 24.7204L25.4843 24.5047V24.068V24.0096V18.9867M24.9035 18.9867V18.9866L25.1939 18.9866L25.4843 18.9867M24.9035 18.9867C24.9035 19.1471 25.0338 19.2771 25.1939 19.2771C25.3543 19.2771 25.4843 19.1468 25.4843 18.9867M24.9035 18.9867H25.1939H25.4843M19.2832 18.5377L19.2833 18.5377L19.2832 18.5377ZM19.2832 18.5377C19.0702 18.9087 18.5585 19.0473 18.1849 18.8326L19.2832 18.5377ZM17.8522 19.4104L17.8515 19.41C17.5772 19.2516 17.3794 18.9922 17.2975 18.6881L17.2974 18.6877L17.2973 18.6876L17.2969 18.686C17.2304 18.4355 17.2472 18.1734 17.343 17.936V17.7414C17.1722 18.0364 17.1265 18.3806 17.2148 18.7097C17.3027 19.0387 17.514 19.3136 17.8095 19.4849L17.8522 19.4104ZM25.0956 26.1637L25.1557 26.2238L25.0956 26.1638L25.0949 26.1644C24.8441 26.4147 24.5077 26.5529 24.1544 26.5529C24.1544 26.5529 24.1544 26.5529 24.1544 26.5529C23.6743 26.5529 23.2531 26.2977 23.0193 25.9158C22.9953 25.928 22.971 25.9399 22.9464 25.9514L25.0956 26.1637ZM17.9194 18.0763C17.8377 18.218 17.8165 18.3795 17.8587 18.5368C17.8587 18.5368 17.8587 18.5369 17.8587 18.5369L17.8587 18.537L17.8589 18.5376C17.9007 18.694 17.9991 18.8236 18.1419 18.907C18.142 18.907 18.142 18.9071 18.1421 18.9071L17.9194 18.0763Z" fill="#4CAF4F" stroke="#4CAF4F" stroke-width="1.33333"/>
<path d="M16.1252 31.3846C15.9466 31.492 15.7157 31.4341 15.609 31.2557C15.5021 31.0776 15.56 30.8465 15.7379 30.7395L16.1252 31.3846ZM11.7468 27.0199C11.7615 26.9935 11.7752 26.9688 11.7878 26.946C11.8391 26.8537 11.8738 26.7911 11.8877 26.766L11.9635 26.806C11.9167 26.8903 11.8708 26.9731 11.8257 27.0543C11.7993 27.0443 11.7729 27.0329 11.7468 27.0199ZM22.1553 29.3139C22.3075 29.2225 22.415 29.0778 22.4578 28.9061C22.5007 28.7346 22.4741 28.5562 22.3829 28.404L22.1553 29.3139Z" fill="#4CAF4F" stroke="#4CAF4F" stroke-width="1.33333"/>
<path d="M27.8527 28.6861C27.7587 28.6278 27.6732 28.5588 27.5976 28.4808L26.8782 28.1044L26.8782 28.1044L26.8381 28.0834C26.7243 28.0239 26.6083 27.9957 26.4965 27.9954L27.8527 28.6861ZM26.1717 27.4548C26.1718 27.4547 26.1719 27.4547 26.1721 27.4547L26.2275 27.6769L26.2275 27.677L26.3126 28.0184L26.3125 28.0184L26.1717 27.4548ZM30.3872 34.3784C30.387 34.3783 30.3869 34.3783 30.3867 34.3782L30.3872 34.3784ZM25.845 30.78L25.8464 30.7808L25.845 30.78Z" fill="#4CAF4F" stroke="#4CAF4F" stroke-width="1.33333"/>
</svg>
