<svg width="48" height="49" viewBox="0 0 48 49" fill="none" xmlns="http://www.w3.org/2000/svg">
<path d="M5.5 17.0928V17.5928H6H42H42.5V17.0928V14.8428C42.5 13.7156 42.0522 12.6346 41.2552 11.8376C40.4582 11.0405 39.3772 10.5928 38.25 10.5928H9.75C8.62283 10.5928 7.54183 11.0405 6.7448 11.8376C5.94777 12.6346 5.5 13.7156 5.5 14.8428V17.0928ZM42.5 20.0928V19.5928H42H6H5.5V20.0928V34.3428C5.5 35.4699 5.94777 36.5509 6.7448 37.348C7.54183 38.145 8.62283 38.5928 9.75 38.5928H38.25C39.3772 38.5928 40.4582 38.145 41.2552 37.348C42.0522 36.5509 42.5 35.4699 42.5 34.3428V20.0928ZM3.5 14.8428C3.5 13.1852 4.15848 11.5955 5.33058 10.4234C6.50268 9.25125 8.0924 8.59277 9.75 8.59277H38.25C39.9076 8.59277 41.4973 9.25125 42.6694 10.4234C43.8415 11.5955 44.5 13.1852 44.5 14.8428V34.3428C44.5 36.0004 43.8415 37.5901 42.6694 38.7622C41.4973 39.9343 39.9076 40.5928 38.25 40.5928H9.75C8.0924 40.5928 6.50268 39.9343 5.33058 38.7622C4.15848 37.5901 3.5 36.0004 3.5 34.3428V14.8428ZM31.5 29.5928H36C36.2652 29.5928 36.5196 29.6981 36.7071 29.8857C36.8946 30.0732 37 30.3276 37 30.5928C37 30.858 36.8946 31.1123 36.7071 31.2999C36.5196 31.4874 36.2652 31.5928 36 31.5928H31.5C31.2348 31.5928 30.9804 31.4874 30.7929 31.2999C30.6054 31.1123 30.5 30.858 30.5 30.5928C30.5 30.3276 30.6054 30.0732 30.7929 29.8857C30.9804 29.6981 31.2348 29.5928 31.5 29.5928Z" fill="#4CAF4F" stroke="#4CAF4F"/>
</svg>
