<svg width="34" height="39" viewBox="0 0 34 39" fill="none" xmlns="http://www.w3.org/2000/svg">
<path d="M33 37.5928V33.5928C33 31.471 32.1571 29.4362 30.6569 27.9359C29.1566 26.4356 27.1217 25.5928 25 25.5928H23C22.4696 25.5928 21.9609 25.3821 21.5858 25.007C21.2107 24.6319 21 24.1232 21 23.5928V13.5928C21 12.5319 20.5786 11.5145 19.8284 10.7643C19.0783 10.0142 18.0609 9.59277 17 9.59277C15.9391 9.59277 14.9217 10.0142 14.1716 10.7643C13.4214 11.5145 13 12.5319 13 13.5928V31.5928L8.2 25.1928C7.82741 24.696 7.34428 24.2928 6.78885 24.0151C6.23343 23.7374 5.62098 23.5928 5 23.5928H4.132C2.402 23.5928 1 24.9948 1 26.7248C1 27.2928 1.154 27.8508 1.446 28.3368L7 37.5928M17 3.59277V1.59277V3.59277ZM29 15.5928H31H29ZM3 15.5928H5H3ZM7.686 6.27877L6.272 4.86477L7.686 6.27877ZM26.314 6.27877L27.728 4.86477L26.314 6.27877Z" fill="#4CAF4F"/>
<path d="M33 37.5928V33.5928C33 31.471 32.1571 29.4362 30.6569 27.9359C29.1566 26.4356 27.1217 25.5928 25 25.5928H23C22.4696 25.5928 21.9609 25.3821 21.5858 25.007C21.2107 24.6319 21 24.1232 21 23.5928V13.5928C21 12.5319 20.5786 11.5145 19.8284 10.7643C19.0783 10.0142 18.0609 9.59277 17 9.59277V9.59277C15.9391 9.59277 14.9217 10.0142 14.1716 10.7643C13.4214 11.5145 13 12.5319 13 13.5928V31.5928L8.2 25.1928C7.82741 24.696 7.34428 24.2928 6.78885 24.0151C6.23343 23.7374 5.62098 23.5928 5 23.5928H4.132C2.402 23.5928 1 24.9948 1 26.7248C1 27.2928 1.154 27.8508 1.446 28.3368L7 37.5928M17 3.59277V1.59277M29 15.5928H31M3 15.5928H5M7.686 6.27877L6.272 4.86477M26.314 6.27877L27.728 4.86477" stroke="#4CAF4F" stroke-width="2" stroke-linecap="round" stroke-linejoin="round"/>
</svg>
