<svg width="48" height="32" viewBox="0 0 48 32" fill="none" xmlns="http://www.w3.org/2000/svg">
<path d="M23.2958 22.1398L23.9031 21.6289C25.7081 20.1104 27.0026 18.0736 27.6109 15.7947C28.2193 13.5157 28.1121 11.1047 27.304 8.88868C26.4958 6.67265 25.0258 4.75872 23.0932 3.40638C21.1605 2.05404 18.8588 1.3287 16.5 1.3287C14.1412 1.3287 11.8394 2.05404 9.90681 3.40638C7.97418 4.75872 6.50414 6.67265 5.69599 8.88868C4.88785 11.1047 4.78068 13.5157 5.38904 15.7947C5.99739 18.0736 7.29183 20.1104 9.09686 21.6289L9.70421 22.1398L8.98113 22.4671C6.00796 23.8125 3.44947 25.9298 1.57166 28.5989L23.2958 22.1398ZM23.2958 22.1398L24.0188 22.4671M23.2958 22.1398L24.0188 22.4671M24.0188 22.4671C26.9921 23.8126 29.5507 25.93 31.4285 28.5992L31.4357 28.6094L31.4433 28.6192C31.5892 28.8061 31.6956 29.0207 31.756 29.2499C31.8165 29.4791 31.8297 29.7183 31.7949 29.9528C31.7601 30.1873 31.678 30.4123 31.5536 30.6141C31.4293 30.816 31.2652 30.9904 31.0713 31.1269C30.8775 31.2634 30.6579 31.3591 30.426 31.4081C30.194 31.4572 29.9545 31.4586 29.722 31.4123C29.4895 31.366 29.2688 31.2729 29.0734 31.1387C28.8779 31.0045 28.7118 30.832 28.585 30.6317L28.5786 30.6215L28.5717 30.6117C27.211 28.6737 25.4036 27.0917 23.3024 25.9996C21.2013 24.9075 18.868 24.3374 16.5 24.3374C14.1319 24.3374 11.7987 24.9075 9.69752 25.9996C7.59634 27.0917 5.789 28.6737 4.42827 30.6117L4.42716 30.6133C4.2672 30.843 4.05392 31.0306 3.80561 31.1598C3.55729 31.289 3.28135 31.3561 3.00142 31.3553L2.99836 31.3553C2.63935 31.3565 2.28905 31.2448 1.99698 31.036L1.99458 31.0343M24.0188 22.4671L1.99458 31.0343M1.99458 31.0343C1.61601 30.7671 1.35888 30.3606 1.2796 29.904C1.20034 29.4476 1.30529 28.9784 1.57142 28.5992L1.99458 31.0343ZM46.2901 31.0318L46.2901 31.0319C46.4786 30.9011 46.6393 30.7342 46.7628 30.5408C46.8863 30.3475 46.9701 30.1314 47.0093 29.9054C47.0486 29.6793 47.0425 29.4477 46.9915 29.224C46.9404 29.0003 46.8454 28.789 46.712 28.6023L46.7098 28.5992C44.832 25.93 42.2734 23.8126 39.3001 22.4671L38.575 22.1389L39.1853 21.6281C40.9952 20.1132 42.2942 18.0773 42.9055 15.7976C43.5168 13.518 43.4107 11.1053 42.6016 8.88808C41.7924 6.67088 40.3197 4.75692 38.3838 3.40678C36.4479 2.05664 34.1429 1.33593 31.7827 1.34278L31.7804 1.34279C30.7301 1.34104 29.6846 1.48607 28.6744 1.77368L28.6654 1.77623L28.6654 1.77615C28.441 1.83553 28.2307 1.93895 28.0466 2.0804C27.8626 2.22184 27.7086 2.39848 27.5935 2.60004C27.4783 2.8016 27.4045 3.02404 27.3762 3.25441C27.3478 3.48479 27.3656 3.71849 27.4285 3.94193C27.4914 4.16536 27.5981 4.37405 27.7424 4.55586L27.3639 4.85623L27.7424 4.55586C27.8867 4.73766 28.0657 4.88894 28.269 5.0009C28.4723 5.11285 28.6959 5.18323 28.9267 5.20796C29.1575 5.23268 29.3909 5.21124 29.6133 5.1449L29.6191 5.14318L29.6191 5.14322C30.3225 4.94254 31.0506 4.84141 31.7822 4.84279M46.2901 31.0318L43.4437 30.899L43.8524 30.611C43.8523 30.6108 43.8521 30.6106 43.852 30.6104C42.4885 28.6761 40.6807 27.0974 38.5805 26.0068C36.4801 24.916 34.1485 24.3454 31.7818 24.3428H31.7812C31.3171 24.3428 30.872 24.1584 30.5438 23.8302C30.2156 23.502 30.0312 23.0569 30.0312 22.5928C30.0312 22.1287 30.2156 21.6835 30.5438 21.3554C30.872 21.0272 31.3171 20.8428 31.7812 20.8428C33.903 20.8428 35.9378 19.9999 37.4381 18.4996C38.9384 16.9993 39.7812 14.9645 39.7812 12.8428C39.7812 10.7211 38.9384 8.68622 37.4381 7.18593C35.938 5.68586 33.9036 4.84304 31.7822 4.84279M46.2901 31.0318L46.2842 31.036M46.2901 31.0318L46.2842 31.036M31.7822 4.84279L31.7812 5.34279V4.84279C31.7815 4.84279 31.7819 4.84279 31.7822 4.84279ZM39.5062 22.0115L39.7124 21.556C39.7811 21.5871 39.8497 21.6186 39.918 21.6505C39.7838 21.7738 39.6465 21.8942 39.5062 22.0115ZM39.5062 22.0115L39.8272 22.3949C39.8862 22.3455 39.9448 22.2955 40.0029 22.2451C39.8386 22.1649 39.6731 22.087 39.5062 22.0115ZM46.2842 31.036C45.9923 31.2447 45.6423 31.3563 45.2835 31.3553L46.2842 31.036ZM9.84823 8.39822C8.96918 9.71382 8.49998 11.2605 8.49998 12.8428C8.49998 14.9645 9.34284 16.9993 10.8431 18.4996C12.3434 19.9999 14.3783 20.8428 16.5 20.8428C18.0822 20.8428 19.629 20.3736 20.9445 19.4945C22.2601 18.6155 23.2855 17.3661 23.891 15.9043C24.4965 14.4424 24.6549 12.8339 24.3463 11.2821C24.0376 9.73022 23.2757 8.30475 22.1568 7.18593C21.038 6.06711 19.6126 5.30518 18.0607 4.9965C16.5089 4.68782 14.9003 4.84625 13.4385 5.45175C11.9767 6.05725 10.7273 7.08263 9.84823 8.39822Z" fill="#4CAF4F" stroke="#4CAF4F"/>
</svg>
